<?xml version="1.0" standalone="no"?>
<!DOCTYPE svg PUBLIC "-//W3C//DTD SVG 20010904//EN"
 "http://www.w3.org/TR/2001/REC-SVG-20010904/DTD/svg10.dtd">
<svg version="1.0" xmlns="http://www.w3.org/2000/svg"
 width="512.000000pt" height="512.000000pt" viewBox="0 0 512.000000 512.000000"
 preserveAspectRatio="xMidYMid meet">
<metadata>
Created by potrace 1.14, written by Peter Selinger 2001-2017
</metadata>
<g transform="translate(0.000000,512.000000) scale(0.100000,-0.100000)"
fill="#000000" stroke="none">
<path d="M3995 3500 c-196 -31 -368 -128 -485 -273 -171 -212 -269 -609 -231
-942 16 -137 35 -205 87 -311 125 -256 357 -376 696 -361 189 8 330 61 433
162 62 61 82 101 106 219 32 156 21 226 -37 226 -32 0 -50 -10 -143 -79 -116
-86 -186 -113 -302 -119 -227 -11 -322 78 -351 328 -19 176 14 420 76 557 34
72 116 158 175 180 61 24 158 24 194 0 46 -30 59 -69 67 -213 4 -73 11 -138
15 -144 11 -18 207 -7 269 15 73 26 150 105 170 174 45 152 -3 330 -116 437
-105 100 -231 143 -433 149 -71 2 -157 0 -190 -5z"/>
<path d="M1753 3481 c-77 -20 -79 -42 -19 -195 60 -155 349 -802 393 -883 l36
-65 -12 -152 c-6 -83 -11 -205 -11 -272 0 -112 2 -124 28 -174 31 -61 65 -83
151 -100 66 -12 241 -13 260 -1 15 10 32 181 46 458 l7 141 45 54 c198 238
471 712 542 942 25 81 25 89 6 130 -27 57 -129 101 -265 115 -107 12 -137 6
-155 -29 -7 -14 -46 -120 -85 -234 -61 -179 -102 -278 -241 -583 -26 -56 -34
-63 -42 -35 -44 155 -215 690 -234 729 -49 104 -143 152 -313 158 -58 3 -120
1 -137 -4z"/>
<path d="M1105 3470 c-4 -6 -15 -149 -25 -318 -44 -708 -70 -914 -135 -1043
-33 -64 -67 -89 -123 -89 -57 0 -88 32 -117 121 l-20 64 -55 -1 c-110 -2 -215
-83 -246 -190 -39 -135 32 -276 176 -349 84 -43 170 -57 305 -52 141 5 205 25
302 93 85 61 136 123 194 239 102 206 142 470 169 1140 6 137 8 263 4 280 -9
44 -51 83 -108 100 -59 18 -311 21 -321 5z"/>
</g>
</svg>
